{"title":"Operator.2015.BRRiP.XViD.AC3.5.1.ReLeNTLesS","uid":12531850,"size":1251675942,"categoryP":"video","categoryS":"movies","magnet":"?xt=urn:btih:cb15d4638c9022b4a7783030e09d580d8f8b897b&amp;dn=Operator.2015.BRRiP.XViD.AC3.5.1.ReLeNTLesS&amp;tr=udp%3A%2F%2Ftracker.leechers-paradise.org%3A6969&amp;tr=udp%3A%2F%2Fzer0day.ch%3A1337&amp;tr=udp%3A%2F%2Fopen.demonii.com%3A1337&amp;tr=udp%3A%2F%2Ftracker.coppersurfer.tk%3A6969&amp;tr=udp%3A%2F%2Fexodus.desync.com%3A6969","seeders":0,"leechers":1,"uploader":"TvTeam","files":4,"time":1444270746,"description":"------------------------------------------------------------------------\r\n\r  https://www.torrenting.com\r\n\r\nSign up is OPEN - for time being. Come and have fun.\r\n\r\n------------------------------------------------------------------------P0STER\r\n[img]http://i.imgur.com/yPFD1lN.png[/img]\r\n\r\niMDB: http://www.imdb.com/title/tt3849692/\r\n\r\nGeneral\r\nComplete name               : Operator.2015.BRRiP.XViD.AC3.5.1.ReLeNTLesS.avi\r\nFormat                      : AVI\r\nFormat/Info                 : Audio Video Interleave\r\nFile size                   : 1.16 GiB\r\nDuration                    : 1h 27mn\r\nOverall bit rate            : 1 902 Kbps\r\n\r\nVideo\r\nID                          : 0\r\nFormat                      : MPEG-4 Visual\r\nFormat profile              : Advanced   \r\nFormat settings, BVOP       : 1\r\nFormat settings, QPel       : No\r\nFormat settings, GMC        : No warppoints\r\nFormat settings, Matrix     : Default (H.263)\r\nMuxing mode                 : Packed bitstream\r\nCodec ID                    : XVID\r\nCodec ID/Hint               : XviD\r\nDuration                    : 1h 27mn\r\nBit rate                    : 1 702 Kbps\r\nWidth                       : 720 pixels\r\nHeight                      : 304 pixels\r\nDisplay aspect ratio        : 2.35:1\r\nFrame rate                  : 23.976 fps\r\nColor space                 : YUV\r\nChroma subsampling          : 4:2:0\r\nBit depth                   : 8 bits\r\nScan type                   : Progressive\r\nCompression mode            : Lossy\r\nBits/(Pixel*Frame)          : 0.324\r\nStream size                 : 1.03 GiB (89%)\r\nWriting library             : XviD 1.2.1 (UTC 2008-12-04)\r\n\r\nAudio\r\nID                          : 1\r\nFormat                      : AC-3\r\nFormat/Info                 : Audio Coding 3\r\nMode extension              : CM (complete main)\r\nFormat settings, Endianness : Big\r\nCodec ID                    : 2000\r\nDuration                    : 1h 27mn\r\nBit rate mode               : Constant\r\nBit rate                    : 192 Kbps\r\nChannel(s)                  : 6 channels\r\nChannel positions           : Front: L C R, Side: L R, LFE\r\nSampling rate               : 48.0 KHz\r\nCompression mode            : Lossy\r\nStream size                 : 119 MiB (10%)\r\nAlignment                   : Aligned on interleaves\r\nInterleave, duration        : 64 ms (1.53 video frames)\r\nInterleave, preload duratio : 192 ms\r\nTitle                       : operator.2015.ReLeNTLesS.Audio.AC3.5.1. English\r\nSample Included             : Yes\r\nSource                      : RUSTED Thanks\r\n\r\nPL0T\r\nWhen the daughter of veteran 911 call center operator Pamela (Mischa Barton), and her estranged husband Jeremy (Luke Goss), a Senior Police Officer, is kidnapped and held hostage, \r\nthey are left desperate, with no choice but to follow the kidnapper's rules: send messages through dispatch for all police and fire units to scatter to remote locations throughout \r\nthe city where they are met with chaos. Not knowing who or why, the one thing they do know is if they fail to discreetly collaborate with one another - they will be solely \r\nresponsible for facilitating the biggest crime in the city's history. Now they must race against the clock to make the choice of their lives - save the city - or save their daughter.\r\n\r\nCAST\r\nDirectors: Amariah Olson, Obin Olson\r\nWriters: Dwain Worrell (story), Dwain Worrell\r\nStars: Luke Goss, Mischa Barton, Ving Rhames\r\n\r\nSCREENS\r\n[img]http://i.imgur.com/98C4nU0.png[/img]\r\n[img]http://i.imgur.com/BnIwxg2.png[/img]\r\n[img]http://i.imgur.com/fO3P3sr.png[/img]\r\n[img]http://i.imgur.com/YCdgR54.png[/img]\r\n[img]http://i.imgur.com/JX08tO2.png[/img]\r\n[img]http://i.imgur.com/02dEtZx.png[/img]\r\n\r\nTRAiLER\r\n\r\nGREETZ\r\n\r\n\r\nHIVE-CM8, Blackjesus, M0RPH, M00SE, MiLLENiUM,\r\n\r\nMANiX, TiTAN, Anonymous, TuX, \r\n\r\nACAB, KingStoner, FooKas, 4PlayHD, \r\n\r\nSoZE, GodFather, Cld.... \r\n\r\nKeep up the good work guyz","torrent":{"xt":"urn:btih:cb15d4638c9022b4a7783030e09d580d8f8b897b","amp;dn":"Operator.2015.BRRiP.XViD.AC3.5.1.ReLeNTLesS","amp;tr":["udp%3A%2F%2Ftracker.leechers-paradise.org%3A6969","udp%3A%2F%2Fzer0day.ch%3A1337","udp%3A%2F%2Fopen.demonii.com%3A1337","udp%3A%2F%2Ftracker.coppersurfer.tk%3A6969","udp%3A%2F%2Fexodus.desync.com%3A6969"],"infoHash":"cb15d4638c9022b4a7783030e09d580d8f8b897b","infoHashBuffer":{"type":"Buffer","data":[203,21,212,99,140,144,34,180,167,120,48,48,224,157,88,13,143,139,137,123]},"announce":[],"urlList":[]}}